<!DOCTYPE svg PUBLIC "-//W3C//DTD SVG 1.1//EN" "http://www.w3.org/Graphics/SVG/1.1/DTD/svg11.dtd">
<!-- Uploaded to: SVG Repo, www.svgrepo.com, Transformed by: SVG Repo Mixer Tools -->
<svg fill="#ffffff" width="800px" height="800px" viewBox="0 0 256 256" id="Flat" xmlns="http://www.w3.org/2000/svg" stroke="#ffffff">
<g id="SVGRepo_bgCarrier" stroke-width="0"/>
<g id="SVGRepo_tracerCarrier" stroke-linecap="round" stroke-linejoin="round"/>
<g id="SVGRepo_iconCarrier"> <path d="M86.749,44.29492,33.48242,128,86.749,211.70508a7.99973,7.99973,0,1,1-13.498,8.58984l-56-88a7.99826,7.99826,0,0,1,0-8.58984l56-88a7.99973,7.99973,0,0,1,13.498,8.58984Zm152,79.41016-56-88a7.99973,7.99973,0,0,0-13.498,8.58984L222.51758,128,169.251,211.70508a7.99973,7.99973,0,1,0,13.498,8.58984l56-88A7.99826,7.99826,0,0,0,238.749,123.70508Z"/> </g>
</svg>