<svg xmlns="http://www.w3.org/2000/svg" version="1.1" xmlns:xlink="http://www.w3.org/1999/xlink" xmlns:svgjs="http://svgjs.dev/svgjs" width="2000" height="1247" viewBox="0 0 2000 1247"><g transform="matrix(1,0,0,1,-1.2121212121212466,126.05358594037534)"><svg viewBox="0 0 396 247" data-background-color="#636365" preserveAspectRatio="xMidYMid meet" height="1247" width="2000" xmlns="http://www.w3.org/2000/svg" xmlns:xlink="http://www.w3.org/1999/xlink"><g id="tight-bounds" transform="matrix(1,0,0,1,0.2400000000000091,-0.09999999999999432)"><svg viewBox="0 0 395.52 247.2" height="247.2" width="395.52"><g><svg></svg></g><g><svg viewBox="0 0 395.52 247.2" height="247.2" width="395.52"><g transform="matrix(1,0,0,1,75.54432,103.2697229296314)"><svg viewBox="0 0 244.43135999999998 40.66055414073719" height="40.66055414073719" width="244.43135999999998"><g><svg viewBox="0 0 244.43135999999998 40.66055414073719" height="40.66055414073719" width="244.43135999999998"><g><svg viewBox="0 0 244.43135999999998 40.66055414073719" height="40.66055414073719" width="244.43135999999998"><g><svg viewBox="0 0 244.43135999999998 40.66055414073719" height="40.66055414073719" width="244.43135999999998"><g id="textblocktransform"><svg viewBox="0 0 244.43135999999998 40.66055414073719" height="40.66055414073719" width="244.43135999999998" id="textblock"><g><svg viewBox="0 0 244.43135999999998 40.66055414073719" height="40.66055414073719" width="244.43135999999998"><g transform="matrix(1,0,0,1,0,0)"><svg width="244.43135999999998" viewBox="2.3 -34 208.88 34.75" height="40.66055414073719" data-palette-color="#ffffff"><path d="M12.45 0.75L12.45 0.75Q9.85 0.75 7.53-0.48 5.2-1.7 3.75-4.17 2.3-6.65 2.3-10.35L2.3-10.35Q2.3-14.3 3.98-17.07 5.65-19.85 8.4-21.3 11.15-22.75 14.25-22.75L14.25-22.75Q15.8-22.75 17.63-22.35 19.45-21.95 20.9-20.95L20.9-20.95 20.9-14.4 19.75-14.4Q19.5-17 18.45-18.4 17.4-19.8 16.03-20.35 14.65-20.9 13.3-20.9L13.3-20.9Q10-20.9 8.2-18.43 6.4-15.95 6.4-12.25L6.4-12.25Q6.4-9.3 7.43-7.13 8.45-4.95 10.25-3.75 12.05-2.55 14.3-2.55L14.3-2.55Q16.05-2.55 17.78-3.33 19.5-4.1 20.9-5.45L20.9-5.45 21.7-4.65Q20.3-2.3 17.9-0.78 15.5 0.75 12.45 0.75ZM31.45 0.75L31.45 0.75Q29.1 0.75 27.62-0.48 26.15-1.7 26.15-4L26.15-4Q26.15-5.85 27.3-7.4 28.45-8.95 31.1-10.25 33.75-11.55 38.3-12.65L38.3-12.65 38.3-15.9Q38.3-17.95 37.42-19.3 36.55-20.65 34.1-20.65L34.1-20.65Q31.75-20.65 30.37-19.18 29-17.7 28.45-14.6L28.45-14.6 27.3-14.6 27.3-20.85Q29.05-21.7 31.02-22.23 33-22.75 35.4-22.75L35.4-22.75Q38.15-22.75 39.62-22.03 41.1-21.3 41.7-20 42.3-18.7 42.3-16.95L42.3-16.95 42.3-4.85Q42.3-2.2 43.95-2.2L43.95-2.2Q44.55-2.2 45.32-2.6 46.1-3 47.15-4.25L47.15-4.25 47.95-3.45Q45.65 0.5 42.45 0.5L42.45 0.5Q39.15 0.5 38.4-2.85L38.4-2.85 38.3-2.85Q35.55 0.75 31.45 0.75ZM33.3-2.2L33.3-2.2Q35.7-2.2 38.3-4.4L38.3-4.4 38.3-11.1Q34.7-10.2 33-9.13 31.3-8.05 30.77-6.98 30.25-5.9 30.25-5L30.25-5Q30.25-3.55 31.15-2.88 32.05-2.2 33.3-2.2ZM71.59-17L71.59-5.05Q71.59-3.3 71.92-2.5 72.25-1.7 73.17-1.45 74.09-1.2 75.84-1.15L75.84-1.15 75.84 0 64.59 0 64.59-1.15Q65.7-1.2 66.34-1.45 67-1.7 67.3-2.5 67.59-3.3 67.59-5.05L67.59-5.05 67.59-15.8Q67.59-17.55 66.82-18.55 66.05-19.55 64.15-19.55L64.15-19.55Q62.5-19.55 60.7-18.85 58.9-18.15 57-16.65L57-16.65 57-5.05Q57-3.3 57.32-2.5 57.65-1.7 58.57-1.45 59.5-1.2 61.25-1.15L61.25-1.15 61.25 0 50 0 50-1.15Q51.15-1.2 51.8-1.45 52.45-1.7 52.72-2.5 53-3.3 53-5.05L53-5.05 53-16.4Q53-17.75 52.59-18.18 52.2-18.6 51.5-18.6L51.5-18.6Q50.95-18.6 50.42-18.48 49.9-18.35 49.34-18.1L49.34-18.1 48.84-19.25 56.9-23 57.2-22.7Q57.09-22.25 56.97-20.95 56.84-19.65 56.84-18.2L56.84-18.2 56.95-18.2Q58.84-20.2 61.07-21.48 63.3-22.75 65.9-22.75L65.9-22.75Q69.09-22.75 70.34-21.18 71.59-19.6 71.59-17L71.59-17ZM89.44 0.5L87.24 0.5Q86.89-0.8 86.57-1.75 86.24-2.7 85.69-3.95L85.69-3.95 80.09-17.1Q79.39-18.8 78.82-19.55 78.24-20.3 77.62-20.55 76.99-20.8 76.09-20.85L76.09-20.85 76.09-22 86.64-22 86.64-20.85Q84.94-20.8 84.24-20.53 83.54-20.25 83.64-19.48 83.74-18.7 84.39-17.1L84.39-17.1 89.24-5.6 89.34-5.6 94.09-17.1Q95.09-19.45 94.47-20.1 93.84-20.75 91.19-20.85L91.19-20.85 91.19-22 100.04-22 100.04-20.85Q99.29-20.8 98.69-20.53 98.09-20.25 97.57-19.48 97.04-18.7 96.34-17.1L96.34-17.1 90.79-3.95Q90.24-2.6 89.99-1.7 89.74-0.8 89.44 0.5L89.44 0.5ZM107.69 0.75L107.69 0.75Q105.34 0.75 103.87-0.48 102.39-1.7 102.39-4L102.39-4Q102.39-5.85 103.54-7.4 104.69-8.95 107.34-10.25 109.99-11.55 114.54-12.65L114.54-12.65 114.54-15.9Q114.54-17.95 113.67-19.3 112.79-20.65 110.34-20.65L110.34-20.65Q107.99-20.65 106.62-19.18 105.24-17.7 104.69-14.6L104.69-14.6 103.54-14.6 103.54-20.85Q105.29-21.7 107.27-22.23 109.24-22.75 111.64-22.75L111.64-22.75Q114.39-22.75 115.87-22.03 117.34-21.3 117.94-20 118.54-18.7 118.54-16.95L118.54-16.95 118.54-4.85Q118.54-2.2 120.19-2.2L120.19-2.2Q120.79-2.2 121.57-2.6 122.34-3 123.39-4.25L123.39-4.25 124.19-3.45Q121.89 0.5 118.69 0.5L118.69 0.5Q115.39 0.5 114.64-2.85L114.64-2.85 114.54-2.85Q111.79 0.75 107.69 0.75ZM109.54-2.2L109.54-2.2Q111.94-2.2 114.54-4.4L114.54-4.4 114.54-11.1Q110.94-10.2 109.24-9.13 107.54-8.05 107.02-6.98 106.49-5.9 106.49-5L106.49-5Q106.49-3.55 107.39-2.88 108.29-2.2 109.54-2.2ZM133.34 0.75L133.34 0.75Q129.79 0.75 127.89-0.6 125.99-1.95 125.99-4.05L125.99-4.05Q125.99-4.8 126.29-5.73 126.59-6.65 127.34-7.55L127.34-7.55 128.49-7.55Q128.54-4.35 129.84-2.65 131.14-0.95 133.94-0.95L133.94-0.95Q136.44-0.95 137.64-2.15 138.84-3.35 138.84-4.9L138.84-4.9Q138.84-6.3 137.96-7.2 137.09-8.1 135.71-8.78 134.34-9.45 132.79-10.08 131.24-10.7 129.86-11.48 128.49-12.25 127.61-13.4 126.74-14.55 126.74-16.3L126.74-16.3Q126.74-19.05 128.94-20.9 131.14-22.75 135.09-22.75L135.09-22.75Q136.64-22.75 138.24-22.48 139.84-22.2 141.24-21.4L141.24-21.4 141.24-15.65 140.09-15.65Q139.74-18.6 138.19-19.83 136.64-21.05 134.54-21.05L134.54-21.05Q132.49-21.05 131.44-20.15 130.39-19.25 130.39-17.8L130.39-17.8Q130.39-16.45 131.26-15.58 132.14-14.7 133.51-14.05 134.89-13.4 136.41-12.78 137.94-12.15 139.31-11.33 140.69-10.5 141.56-9.28 142.44-8.05 142.44-6.2L142.44-6.2Q142.44-2.85 139.84-1.05 137.24 0.75 133.34 0.75ZM164.64 0.75L164.64 0.75Q160.99 0.75 157.84-0.48 154.69-1.7 152.31-3.98 149.94-6.25 148.64-9.4 147.34-12.55 147.34-16.35L147.34-16.35Q147.34-20.45 148.84-23.73 150.34-27 152.94-29.3 155.53-31.6 158.94-32.8 162.34-34 166.14-34L166.14-34Q167.99-34 169.91-33.75 171.84-33.5 173.51-33.08 175.19-32.65 176.29-32.15L176.29-32.15 176.29-24.25 175.14-24.25Q174.94-27.2 173.49-28.88 172.04-30.55 169.91-31.28 167.79-32 165.49-32L165.49-32Q161.94-32 158.89-30.4 155.84-28.8 154.01-25.53 152.19-22.25 152.19-17.15L152.19-17.15Q152.19-12.3 153.89-8.72 155.59-5.15 158.41-3.2 161.24-1.25 164.69-1.25L164.69-1.25Q167.84-1.25 170.26-2.73 172.69-4.2 174.24-6.45 175.79-8.7 176.29-11L176.29-11 177.44-11 177.14-5.15Q175.24-2.8 172.24-1.03 169.24 0.75 164.64 0.75ZM196.73 0.4L194.08 0.4Q193.78-0.9 193.56-1.78 193.33-2.65 192.83-3.95L192.83-3.95 183.83-28.25Q183.23-30 182.68-30.78 182.13-31.55 181.43-31.8 180.73-32.05 179.58-32.1L179.58-32.1 179.58-33.25 191.03-33.25 190.98-32.1Q189.33-32.05 188.61-31.78 187.88-31.5 187.88-30.7 187.88-29.9 188.48-28.25L188.48-28.25 196.43-6.4 196.53-6.4 204.63-28.25Q205.33-30.15 204.66-31.08 203.98-32 200.88-32.1L200.88-32.1 200.88-33.25 211.18-33.25 211.18-32.1Q208.38-31.9 207.08-28.25L207.08-28.25 198.08-3.95Q197.58-2.6 197.31-1.75 197.03-0.9 196.73 0.4L196.73 0.4Z" opacity="1" transform="matrix(1,0,0,1,0,0)" fill="#ffffff" class="wordmark-text-0" data-fill-palette-color="primary" id="text-0"></path></svg></g></svg></g></svg></g></svg></g><g></g></svg></g></svg></g></svg></g><g><path d="M79.266 93.671A122.216 122.216 0 0 1 316.254 93.671L312.588 93.671A118.549 118.549 0 0 0 82.932 93.671L79.266 93.671M79.266 153.529A122.216 122.216 0 0 0 316.254 153.529L312.588 153.529A118.549 118.549 0 0 1 82.932 153.529L79.266 153.529" fill="#ffffff" stroke="transparent" data-fill-palette-color="tertiary"></path></g></svg></g><defs></defs></svg><rect width="395.52" height="247.2" fill="none" stroke="none" visibility="hidden"></rect></g></svg></g></svg>